<svg width="1322" height="924" viewBox="0 0 1322 924" fill="none" xmlns="http://www.w3.org/2000/svg">
<line x1="40.5" y1="2.18558e-08" x2="40.5" y2="924" stroke="white" stroke-opacity="0.09"/>
<line x1="82.5" y1="2.18558e-08" x2="82.5" y2="924" stroke="white" stroke-opacity="0.09"/>
<line x1="124.5" y1="2.18558e-08" x2="124.5" y2="924" stroke="white" stroke-opacity="0.09"/>
<line x1="166.5" y1="2.18558e-08" x2="166.5" y2="924" stroke="white" stroke-opacity="0.09"/>
<line x1="208.5" y1="2.18558e-08" x2="208.5" y2="924" stroke="white" stroke-opacity="0.09"/>
<line x1="250.5" y1="2.18558e-08" x2="250.5" y2="924" stroke="white" stroke-opacity="0.09"/>
<line x1="292.5" y1="2.18558e-08" x2="292.5" y2="924" stroke="white" stroke-opacity="0.09"/>
<line x1="334.5" y1="2.18558e-08" x2="334.5" y2="924" stroke="white" stroke-opacity="0.09"/>
<line x1="376.5" y1="2.18558e-08" x2="376.5" y2="924" stroke="white" stroke-opacity="0.09"/>
<line x1="418.5" y1="2.18558e-08" x2="418.5" y2="924" stroke="white" stroke-opacity="0.09"/>
<line x1="460.5" y1="2.18558e-08" x2="460.5" y2="924" stroke="white" stroke-opacity="0.09"/>
<line x1="502.5" y1="2.18558e-08" x2="502.5" y2="924" stroke="white" stroke-opacity="0.09"/>
<line x1="544.5" y1="2.18558e-08" x2="544.5" y2="924" stroke="white" stroke-opacity="0.09"/>
<line x1="586.5" y1="2.18558e-08" x2="586.5" y2="924" stroke="white" stroke-opacity="0.09"/>
<line x1="628.5" y1="2.18558e-08" x2="628.5" y2="924" stroke="white" stroke-opacity="0.09"/>
<line x1="670.5" y1="2.18558e-08" x2="670.5" y2="924" stroke="white" stroke-opacity="0.09"/>
<line x1="712.5" y1="2.18558e-08" x2="712.5" y2="924" stroke="white" stroke-opacity="0.09"/>
<line x1="754.5" y1="2.18558e-08" x2="754.5" y2="924" stroke="white" stroke-opacity="0.09"/>
<line x1="796.5" y1="2.18558e-08" x2="796.5" y2="924" stroke="white" stroke-opacity="0.09"/>
<line x1="838.5" y1="2.18558e-08" x2="838.5" y2="924" stroke="white" stroke-opacity="0.09"/>
<line x1="880.5" y1="2.18558e-08" x2="880.5" y2="924" stroke="white" stroke-opacity="0.09"/>
<line x1="922.5" y1="2.18558e-08" x2="922.5" y2="924" stroke="white" stroke-opacity="0.09"/>
<line x1="964.5" y1="2.18558e-08" x2="964.5" y2="924" stroke="white" stroke-opacity="0.09"/>
<line x1="1006.5" y1="2.18558e-08" x2="1006.5" y2="924" stroke="white" stroke-opacity="0.09"/>
<line x1="1048.5" y1="2.18558e-08" x2="1048.5" y2="924" stroke="white" stroke-opacity="0.09"/>
<line x1="1090.5" y1="2.18558e-08" x2="1090.5" y2="924" stroke="white" stroke-opacity="0.09"/>
<line x1="1132.5" y1="2.18558e-08" x2="1132.5" y2="924" stroke="white" stroke-opacity="0.09"/>
<line x1="1174.5" y1="2.18558e-08" x2="1174.5" y2="924" stroke="white" stroke-opacity="0.09"/>
<line x1="1216.5" y1="2.18558e-08" x2="1216.5" y2="924" stroke="white" stroke-opacity="0.09"/>
<line x1="1258.5" y1="2.18558e-08" x2="1258.5" y2="924" stroke="white" stroke-opacity="0.09"/>
<line x1="1300.5" y1="2.18558e-08" x2="1300.5" y2="924" stroke="white" stroke-opacity="0.09"/>
<line x1="1322" y1="14.5" x2="0.000122026" y2="14.4999" stroke="white" stroke-opacity="0.09"/>
<line x1="1322" y1="56.5" x2="0.000122026" y2="56.4999" stroke="white" stroke-opacity="0.09"/>
<line x1="1322" y1="98.5" x2="0.000122026" y2="98.4999" stroke="white" stroke-opacity="0.09"/>
<line x1="1322" y1="140.5" x2="0.000122026" y2="140.5" stroke="white" stroke-opacity="0.09"/>
<line x1="1322" y1="182.5" x2="0.000122026" y2="182.5" stroke="white" stroke-opacity="0.09"/>
<line x1="1322" y1="224.5" x2="0.000122026" y2="224.5" stroke="white" stroke-opacity="0.09"/>
<line x1="1322" y1="266.5" x2="0.000122026" y2="266.5" stroke="white" stroke-opacity="0.09"/>
<line x1="1322" y1="308.5" x2="0.000122026" y2="308.5" stroke="white" stroke-opacity="0.09"/>
<line x1="1322" y1="350.5" x2="0.000122026" y2="350.5" stroke="white" stroke-opacity="0.09"/>
<line x1="1322" y1="392.5" x2="0.000122026" y2="392.5" stroke="white" stroke-opacity="0.09"/>
<line x1="1322" y1="434.5" x2="0.000122026" y2="434.5" stroke="white" stroke-opacity="0.09"/>
<line x1="1322" y1="476.5" x2="0.000122026" y2="476.5" stroke="white" stroke-opacity="0.09"/>
<line x1="1322" y1="518.5" x2="0.000122026" y2="518.5" stroke="white" stroke-opacity="0.09"/>
<line x1="1322" y1="560.5" x2="0.000122026" y2="560.5" stroke="white" stroke-opacity="0.09"/>
<line x1="1322" y1="602.5" x2="0.000122026" y2="602.5" stroke="white" stroke-opacity="0.09"/>
<line x1="1322" y1="644.5" x2="0.000122026" y2="644.5" stroke="white" stroke-opacity="0.09"/>
<line x1="1322" y1="686.5" x2="0.000122026" y2="686.5" stroke="white" stroke-opacity="0.09"/>
<line x1="1322" y1="728.5" x2="0.000122026" y2="728.5" stroke="white" stroke-opacity="0.09"/>
<line x1="1322" y1="770.5" x2="0.000122026" y2="770.5" stroke="white" stroke-opacity="0.09"/>
<line x1="1322" y1="812.5" x2="0.000122026" y2="812.5" stroke="white" stroke-opacity="0.09"/>
<line x1="1322" y1="854.5" x2="0.000122026" y2="854.5" stroke="white" stroke-opacity="0.09"/>
<line x1="1322" y1="896.5" x2="0.000122026" y2="896.5" stroke="white" stroke-opacity="0.09"/>
</svg>
