<svg width="333" height="296" viewBox="0 0 333 296" fill="none" xmlns="http://www.w3.org/2000/svg">
<g opacity="0.5">
<path d="M20.7221 100.295H18.9453V15H104.241V16.777H20.7221V100.295Z" fill="#FFF9F9"/>
<path d="M44.2387 33.2029H43.3591V34.7188H41.7461V29.0146H44.3531C44.869 29.0146 45.3168 29.1005 45.6974 29.2716C46.0775 29.4434 46.3705 29.688 46.577 30.0056C46.7835 30.3231 46.8869 30.6962 46.8869 31.1248C46.8869 31.538 46.7902 31.8979 46.5976 32.2042C46.4046 32.5113 46.1288 32.7526 45.7705 32.9261L47.0004 34.7188H45.2735L44.2387 33.2029ZM45.0048 30.5061C44.8362 30.3595 44.5864 30.2867 44.2555 30.2867H43.3591V31.9562H44.2555C44.5864 31.9562 44.8362 31.885 45.0048 31.7409C45.173 31.597 45.2575 31.3921 45.2575 31.1248C45.2575 30.8593 45.173 30.6528 45.0048 30.5061Z" fill="white"/>
<path d="M52.3521 33.4718V34.7188H47.7734V29.0146H52.2461V30.2623H49.37V31.2238H51.9038V32.4288H49.37V33.4718H52.3521Z" fill="white"/>
<path d="M54.4729 34.4536C53.9978 34.2013 53.624 33.8495 53.3523 33.3985C53.0807 32.9481 52.9453 32.437 52.9453 31.867C52.9453 31.2971 53.0807 30.7867 53.3523 30.3356C53.624 29.8845 53.9978 29.533 54.4729 29.2805C54.9481 29.0271 55.4842 28.9014 56.0821 28.9014C56.6039 28.9014 57.0732 28.9942 57.4916 29.1781C57.9099 29.3638 58.2573 29.6292 58.5343 29.9764L57.5075 30.9058C57.1384 30.4607 56.6905 30.2377 56.1633 30.2377C55.8538 30.2377 55.5779 30.3062 55.3362 30.4416C55.0948 30.5769 54.9073 30.7687 54.7744 31.016C54.6411 31.2624 54.5743 31.5469 54.5743 31.8672C54.5743 32.1873 54.6411 32.472 54.7744 32.7184C54.9073 32.9657 55.0948 33.1573 55.3362 33.2928C55.5779 33.4291 55.8538 33.4968 56.1633 33.4968C56.6901 33.4968 57.1384 33.2737 57.5075 32.8286L58.5343 33.758C58.2573 34.105 57.9099 34.3716 57.4916 34.5562C57.0732 34.7403 56.6039 34.8328 56.0821 34.8328C55.4842 34.8328 54.9481 34.7071 54.4729 34.4536Z" fill="white"/>
</g>
<path d="M38 32C38 34.2091 36.2093 36 34 36C31.7907 36 30 34.2091 30 32C30 29.7909 31.7907 28 34 28C36.2093 28 38 29.7909 38 32Z" fill="#FF0000"><animate attributeName="opacity" dur="1s" repeatCount="indefinite" values="1;0;1"/></path>
</svg>
