<svg width="333" height="296" viewBox="0 0 333 296" fill="none" xmlns="http://www.w3.org/2000/svg">
<g opacity="0.5">
<path d="M99.4945 279.549H18.9453V199H20.6233V277.871H99.4945V279.549Z" fill="#FFF9F9"/>
<path d="M61.1431 269.382H33.0284C31.5072 269.382 30.2734 268.149 30.2734 266.627V261.233C30.2734 259.711 31.5072 258.478 33.0284 258.478H61.1431C62.6648 258.478 63.8981 259.711 63.8981 261.233V266.627C63.8981 268.149 62.6644 269.382 61.1431 269.382Z" fill="white"/>
<path d="M39.2996 265.088H38.4685V266.519H36.9453V261.134H39.4072C39.8945 261.134 40.3177 261.214 40.6767 261.376C41.0357 261.537 41.3128 261.768 41.5078 262.068C41.7028 262.368 41.8001 262.721 41.8001 263.126C41.8001 263.516 41.7087 263.856 41.5269 264.146C41.3446 264.436 41.0845 264.662 40.7462 264.826L41.9077 266.519H40.2765L39.2996 265.088ZM40.0227 262.541C39.8639 262.403 39.6276 262.333 39.3151 262.333H38.4689V263.911H39.3151C39.628 263.911 39.8639 263.842 40.0227 263.706C40.1815 263.571 40.2618 263.377 40.2618 263.126C40.2618 262.875 40.1815 262.68 40.0227 262.541Z" fill="#121111"/>
<path d="M46.2469 265.473H43.9697L43.5468 266.519H41.9922L44.3699 261.134H45.8701L48.2554 266.519H46.6702L46.2469 265.473ZM45.8006 264.349L45.1081 262.626L44.416 264.349H45.8006Z" fill="#121111"/>
<path d="M56.8364 261.134L55.09 266.519H53.4584L52.4275 263.241L51.3507 266.519H49.719L47.9727 261.134H49.5423L50.6268 264.573L51.766 261.134H53.1661L54.251 264.603L55.3818 261.134H56.8364Z" fill="#121111"/>
</g>
</svg>
