<svg width="333" height="296" viewBox="0 0 333 296" fill="none" xmlns="http://www.w3.org/2000/svg">
<path opacity="0.5" d="M318 279.549H232V277.757H316.211V193.549H318V279.549Z" fill="#FFF9F9"/>
<path opacity="0.5" d="M261.609 263.549V268.549H259.825V266.599H257.393V268.549H255.609V263.549H257.393V265.427H259.825V263.549H261.609Z" fill="white"/>
<path opacity="0.5" d="M262.609 263.549H265.36C265.997 263.549 266.562 263.652 267.056 263.856C267.549 264.062 267.931 264.352 268.202 264.728C268.473 265.103 268.609 265.544 268.609 266.049C268.609 266.553 268.473 266.994 268.202 267.37C267.931 267.746 267.548 268.036 267.056 268.241C266.562 268.446 265.997 268.549 265.36 268.549H262.609V263.549ZM265.294 267.42C265.792 267.42 266.193 267.299 266.495 267.056C266.797 266.813 266.947 266.477 266.947 266.049C266.947 265.62 266.797 265.284 266.495 265.042C266.193 264.799 265.792 264.677 265.294 264.677H264.255V267.42H265.294Z" fill="white"/>
<path opacity="0.5" d="M288.725 271.549H274.497C272.902 271.549 271.609 270.192 271.609 268.518V262.58C271.609 260.906 272.902 259.549 274.497 259.549H288.725C290.319 259.549 291.609 260.906 291.609 262.58V268.518C291.609 270.192 290.319 271.549 288.725 271.549Z" fill="white"/>
<path opacity="0.5" d="M281.609 267.4H280.674V268.549H278.939V267.4H275.609V266.295L278.435 262.549H280.279L277.714 266.055H278.992V265.034H280.674V266.055H281.609V267.4Z" fill="#121111"/>
<path opacity="0.5" d="M283.539 266.372L283.012 267.05V268.549H281.609V262.549H283.012V265.043L284.947 262.549H286.502L284.46 265.206L286.609 268.549H284.965L283.539 266.372Z" fill="#121111"/>
<path opacity="0.5" d="M299.393 265.961C299.537 266.187 299.609 266.445 299.609 266.736C299.609 267.098 299.503 267.417 299.296 267.691C299.088 267.967 298.795 268.177 298.418 268.327C298.04 268.474 297.603 268.549 297.111 268.549C296.615 268.549 296.183 268.474 295.805 268.327C295.424 268.178 295.131 267.967 294.923 267.691C294.715 267.417 294.609 267.098 294.609 266.736C294.609 266.445 294.681 266.187 294.826 265.961C294.966 265.736 295.169 265.546 295.432 265.392C295.237 265.255 295.084 265.087 294.978 264.89C294.872 264.691 294.817 264.472 294.817 264.23C294.817 263.895 294.915 263.599 295.106 263.345C295.296 263.089 295.568 262.892 295.916 262.755C296.263 262.618 296.662 262.549 297.111 262.549C297.557 262.549 297.96 262.618 298.303 262.755C298.655 262.892 298.922 263.089 299.113 263.345C299.308 263.599 299.402 263.895 299.402 264.23C299.402 264.472 299.351 264.691 299.24 264.89C299.134 265.087 298.982 265.255 298.787 265.392C299.05 265.546 299.253 265.736 299.393 265.961ZM297.739 267.209C297.896 267.081 297.972 266.907 297.972 266.686C297.972 266.466 297.896 266.292 297.739 266.163C297.582 266.034 297.374 265.969 297.111 265.969C296.849 265.969 296.636 266.034 296.48 266.163C296.327 266.292 296.246 266.466 296.246 266.686C296.246 266.907 296.323 267.081 296.48 267.209C296.636 267.339 296.844 267.403 297.111 267.403C297.374 267.403 297.582 267.338 297.739 267.209ZM296.615 263.856C296.492 263.963 296.429 264.112 296.429 264.304C296.429 264.491 296.488 264.639 296.611 264.746C296.734 264.853 296.904 264.905 297.111 264.905C297.319 264.905 297.485 264.853 297.612 264.746C297.739 264.639 297.798 264.491 297.798 264.304C297.798 264.112 297.739 263.963 297.612 263.856C297.485 263.749 297.319 263.694 297.111 263.694C296.908 263.694 296.743 263.749 296.615 263.856Z" fill="white"/>
<path opacity="0.5" d="M302.924 266.734L302.291 267.299V268.549H300.609V263.549H302.291V265.627L304.614 263.549H306.481L304.03 265.764L306.609 268.549H304.64L302.924 266.734Z" fill="white"/>
</svg>
