<svg width="287" height="287" viewBox="0 0 287 287" fill="none" xmlns="http://www.w3.org/2000/svg">
<path d="M143.809 2.58073C143.032 0.360569 140.267 0.514066 139.436 2.58073C137.697 6.91029 138.335 12.1893 138.286 16.8195C138.23 22.108 138.029 27.4772 138.667 32.7309C139.104 36.3247 144.008 36.4275 144.342 32.7309C144.818 27.4662 144.535 22.1064 144.54 16.8195C144.543 12.1307 145.366 7.03214 143.809 2.58073Z" fill="#3C3C3B" fill-opacity="0.15"/>
<path d="M165.884 4.33997C165.465 2.02486 162.709 1.74476 161.565 3.65635C159.17 7.65992 158.973 12.9753 158.201 17.5407C157.32 22.7548 156.28 28.0275 156.089 33.316C155.957 36.9351 160.785 37.8023 161.694 34.2038C162.988 29.0783 163.547 23.7407 164.377 18.5202C165.115 13.8868 166.726 8.97969 165.884 4.33997Z" fill="#3C3C3B" fill-opacity="0.15"/>
<path d="M187.403 9.52731C187.351 7.17581 184.673 6.46687 183.244 8.1759C180.252 11.7554 179.226 16.9743 177.75 21.3624C176.063 26.374 174.212 31.4187 173.196 36.6123C172.5 40.1665 177.133 41.779 178.592 38.3657C180.671 33.506 182.059 28.3204 183.697 23.2946C185.15 18.8368 187.509 14.2414 187.403 9.52731Z" fill="#3C3C3B" fill-opacity="0.15"/>
<path d="M207.85 18.018C208.166 15.687 205.633 14.5683 203.954 16.0337C200.439 19.1004 198.61 24.0946 196.464 28.1994C194.014 32.8866 191.397 37.5786 189.58 42.549C188.337 45.9497 192.66 48.2679 194.636 45.1252C197.451 40.6501 199.632 35.7461 202.036 31.0383C204.169 26.8607 207.217 22.6909 207.85 18.018Z" fill="#3C3C3B" fill-opacity="0.15"/>
<path d="M226.72 29.6042C227.397 27.3508 225.07 25.8506 223.183 27.0343C219.232 29.514 216.643 34.1601 213.883 37.8788C210.731 42.1245 207.411 46.3496 204.84 50.9751C203.08 54.14 206.987 57.1038 209.431 54.3108C212.91 50.331 215.831 45.829 218.943 41.5548C221.701 37.7617 225.364 34.1205 226.72 29.6042Z" fill="#3C3C3B" fill-opacity="0.15"/>
<path d="M243.539 43.9994C244.56 41.8805 242.496 40.0338 240.447 40.9073C236.155 42.7382 232.873 46.9222 229.564 50.163C225.785 53.8628 221.847 57.5166 218.582 61.6832C216.349 64.5331 219.744 68.0731 222.595 65.6962C226.654 62.3098 230.245 58.3205 233.986 54.5859C237.306 51.2723 241.493 48.2483 243.539 43.9994Z" fill="#3C3C3B" fill-opacity="0.15"/>
<path d="M257.907 60.8487C259.248 58.915 257.499 56.7692 255.338 57.312C250.813 58.4498 246.916 62.0688 243.142 64.751C238.831 67.8146 234.369 70.807 230.493 74.4118C227.843 76.8773 230.642 80.9046 233.829 79.0025C238.369 76.2933 242.539 72.9132 246.818 69.81C250.612 67.0566 255.222 64.7257 257.907 60.8487Z" fill="#3C3C3B" fill-opacity="0.15"/>
<path d="M269.453 79.7396C271.078 78.0385 269.687 75.6457 267.468 75.8435C262.821 76.2597 258.406 79.2236 254.258 81.284C249.522 83.6355 244.645 85.8936 240.254 88.8464C237.248 90.8672 239.385 95.2838 242.83 93.9023C247.737 91.937 252.385 89.2515 257.097 86.8557C261.278 84.7289 266.194 83.1482 269.453 79.7396Z" fill="#3C3C3B" fill-opacity="0.15"/>
<path d="M277.912 100.203C279.784 98.7768 278.784 96.1959 276.561 96.044C271.907 95.7275 267.082 97.965 262.664 99.3497C257.617 100.931 252.449 102.399 247.649 104.629C244.366 106.154 245.784 110.849 249.403 110.025C254.557 108.851 259.567 106.925 264.596 105.296C269.055 103.853 274.159 103.06 277.912 100.203Z" fill="#3C3C3B" fill-opacity="0.15"/>
<path d="M283.059 121.735C285.131 120.621 284.547 117.914 282.376 117.417C277.828 116.375 272.713 117.831 268.132 118.509C262.9 119.281 257.566 119.922 252.477 121.373C248.996 122.367 249.662 127.226 253.365 126.978C258.639 126.625 263.889 125.506 269.111 124.683C273.742 123.955 278.907 123.971 283.059 121.735Z" fill="#3C3C3B" fill-opacity="0.15"/>
<path d="M284.775 143.81C286.995 143.033 286.842 140.269 284.775 139.438C280.445 137.699 275.166 138.337 270.536 138.288C265.248 138.232 259.878 138.03 254.625 138.668C251.031 139.104 250.928 144.008 254.625 144.342C259.889 144.818 265.249 144.535 270.536 144.54C275.225 144.545 280.324 145.368 284.775 143.81Z" fill="#3C3C3B" fill-opacity="0.15"/>
<path d="M283.018 165.88C285.333 165.459 285.613 162.706 283.701 161.561C279.698 159.166 274.382 158.969 269.817 158.197C264.603 157.316 259.33 156.276 254.042 156.085C250.423 155.953 249.555 160.781 253.154 161.69C258.279 162.984 263.617 163.543 268.837 164.373C273.471 165.111 278.378 166.722 283.018 165.88Z" fill="#3C3C3B" fill-opacity="0.15"/>
<path d="M277.83 187.405C280.182 187.353 280.891 184.675 279.182 183.246C275.602 180.254 270.383 179.228 265.995 177.752C260.984 176.065 255.939 174.214 250.745 173.198C247.193 172.501 245.58 177.135 248.992 178.594C253.851 180.673 259.037 182.061 264.063 183.699C268.521 185.151 273.116 187.511 277.83 187.405Z" fill="#3C3C3B" fill-opacity="0.15"/>
<path d="M269.333 207.852C271.664 208.168 272.783 205.635 271.318 203.956C268.251 200.441 263.257 198.612 259.152 196.466C254.465 194.016 249.773 191.399 244.802 189.582C241.402 188.339 239.085 192.662 242.226 194.638C246.701 197.453 251.605 199.634 256.313 202.038C260.491 204.171 264.659 207.219 269.333 207.852Z" fill="#3C3C3B" fill-opacity="0.15"/>
<path d="M257.75 226.72C260.003 227.397 261.503 225.07 260.319 223.183C257.84 219.232 253.194 216.645 249.476 213.883C245.231 210.73 241.006 207.411 236.38 204.84C233.215 203.08 230.25 206.987 233.044 209.431C237.024 212.91 241.526 215.831 245.8 218.943C249.592 221.701 253.233 225.364 257.75 226.72Z" fill="#3C3C3B" fill-opacity="0.15"/>
<path d="M243.353 243.543C245.474 244.563 247.319 242.5 246.445 240.451C244.615 236.159 240.431 232.877 237.19 229.568C233.49 225.789 229.836 221.851 225.669 218.586C222.82 216.353 219.28 219.749 221.656 222.599C225.043 226.658 229.032 230.249 232.767 233.989C236.082 237.309 239.104 241.497 243.353 243.543Z" fill="#3C3C3B" fill-opacity="0.15"/>
<path d="M226.508 257.906C228.441 259.247 230.587 257.498 230.044 255.336C228.907 250.812 225.288 246.915 222.605 243.14C219.542 238.83 216.549 234.367 212.945 230.492C210.479 227.84 206.452 230.641 208.354 233.828C211.063 238.368 214.443 242.538 217.546 246.816C220.301 250.611 222.632 255.221 226.508 257.906Z" fill="#3C3C3B" fill-opacity="0.15"/>
<path d="M207.613 269.455C209.314 271.08 211.707 269.689 211.509 267.471C211.094 262.825 208.129 258.408 206.068 254.262C203.717 249.524 201.459 244.649 198.506 240.257C196.485 237.252 192.07 239.389 193.45 242.834C195.415 247.741 198.101 252.388 200.496 257.099C202.623 261.28 204.204 266.197 207.613 269.455Z" fill="#3C3C3B" fill-opacity="0.15"/>
<path d="M187.154 277.908C188.58 279.78 191.161 278.78 191.313 276.557C191.63 271.903 189.392 267.078 188.007 262.66C186.427 257.613 184.958 252.444 182.728 247.646C181.203 244.362 176.506 245.78 177.331 249.399C178.505 254.553 180.431 259.563 182.059 264.592C183.505 269.051 184.298 274.155 187.154 277.908Z" fill="#3C3C3B" fill-opacity="0.15"/>
<path d="M165.619 283.057C166.735 285.129 169.441 284.545 169.937 282.374C170.979 277.826 169.523 272.711 168.846 268.13C168.073 262.898 167.432 257.564 165.981 252.475C164.988 248.994 160.128 249.66 160.376 253.363C160.729 258.637 161.848 263.887 162.669 269.108C163.4 273.74 163.385 278.905 165.619 283.057Z" fill="#3C3C3B" fill-opacity="0.15"/>
<path d="M143.545 284.777C144.322 286.997 147.086 286.843 147.917 284.777C149.656 280.447 149.018 275.168 149.068 270.538C149.123 265.25 149.325 259.88 148.688 254.627C148.251 251.033 143.347 250.93 143.013 254.627C142.537 259.891 142.82 265.251 142.815 270.538C142.81 275.227 141.988 280.325 143.545 284.777Z" fill="#3C3C3B" fill-opacity="0.15"/>
<path d="M121.473 283.02C121.893 285.335 124.647 285.615 125.791 283.703C128.187 279.7 128.383 274.386 129.155 269.819C130.037 264.605 131.076 259.332 131.268 254.044C131.399 250.425 126.571 249.557 125.663 253.156C124.368 258.281 123.81 263.619 122.979 268.839C122.24 273.473 120.629 278.38 121.473 283.02Z" fill="#3C3C3B" fill-opacity="0.15"/>
<path d="M99.9488 277.829C100.001 280.18 102.678 280.889 104.107 279.18C107.1 275.601 108.125 270.382 109.602 265.994C111.289 260.982 113.14 255.937 114.156 250.744C114.852 247.189 110.219 245.579 108.758 248.99C106.679 253.85 105.291 259.036 103.653 264.061C102.2 268.519 99.8427 273.115 99.9488 277.829Z" fill="#3C3C3B" fill-opacity="0.15"/>
<path d="M79.5036 269.337C79.1871 271.668 81.7206 272.787 83.3996 271.322C86.9142 268.255 88.7435 263.261 90.8893 259.156C93.3389 254.469 95.9563 249.777 97.7729 244.806C99.0152 241.406 94.6935 239.089 92.717 242.23C89.9019 246.705 87.7212 251.609 85.3175 256.317C83.1859 260.495 80.1366 264.663 79.5036 269.337Z" fill="#3C3C3B" fill-opacity="0.15"/>
<path d="M60.6356 257.751C59.9583 260.004 62.2861 261.504 64.1723 260.321C68.1237 257.841 70.7126 253.195 73.4724 249.478C76.6262 245.232 79.9446 241.007 82.516 236.382C84.2757 233.217 80.3687 230.253 77.9254 233.046C74.4456 237.026 71.5243 241.528 68.4133 245.802C65.6551 249.593 61.9917 253.234 60.6356 257.751Z" fill="#3C3C3B" fill-opacity="0.15"/>
<path d="M43.8086 243.355C42.7879 245.474 44.8513 247.321 46.9006 246.447C51.1922 244.616 54.4742 240.432 57.7831 237.192C61.5619 233.492 65.5006 229.838 68.7652 225.671C70.998 222.821 67.6021 219.282 64.7521 221.658C60.6932 225.045 57.1026 229.034 53.3617 232.769C50.0418 236.084 45.8546 239.106 43.8086 243.355Z" fill="#3C3C3B" fill-opacity="0.15"/>
<path d="M29.4527 226.508C28.1124 228.441 29.8609 230.587 32.0225 230.044C36.5467 228.907 40.4443 225.288 44.2184 222.605C48.529 219.542 52.9915 216.549 56.8668 212.945C59.519 210.479 56.7181 206.452 53.5311 208.354C48.9911 211.063 44.8213 214.443 40.5424 217.546C36.7477 220.3 32.1381 222.631 29.4527 226.508Z" fill="#3C3C3B" fill-opacity="0.15"/>
<path d="M17.9034 207.615C16.2767 209.316 17.6693 211.709 19.8879 211.511C24.5355 211.096 28.9505 208.131 33.0981 206.072C37.8344 203.721 42.7114 201.462 47.1011 198.51C50.1062 196.489 47.9698 192.074 44.5248 193.454C39.6177 195.419 34.9701 198.105 30.2576 200.5C26.0799 202.626 21.1633 204.206 17.9034 207.615Z" fill="#3C3C3B" fill-opacity="0.15"/>
<path d="M9.44308 187.155C7.57105 188.581 8.57116 191.162 10.7945 191.313C15.4484 191.63 20.2733 189.392 24.6931 188.008C29.7395 186.427 34.9077 184.958 39.7073 182.729C42.9908 181.203 41.573 176.508 37.954 177.333C32.7999 178.507 27.7899 180.433 22.7609 182.061C18.3 183.506 13.195 184.299 9.44308 187.155Z" fill="#3C3C3B" fill-opacity="0.15"/>
<path d="M4.29983 165.619C2.22842 166.735 2.81235 169.441 4.98346 169.938C9.53139 170.979 14.6458 169.523 19.227 168.846C24.4585 168.073 29.7929 167.433 34.8821 165.981C38.3634 164.988 37.6973 160.128 33.9944 160.376C28.7201 160.729 23.4711 161.848 18.249 162.671C13.6172 163.4 8.45216 163.385 4.29983 165.619Z" fill="#3C3C3B" fill-opacity="0.15"/>
<path d="M2.57683 143.547C0.356663 144.324 0.510159 147.088 2.57683 147.919C6.90639 149.658 12.1854 149.02 16.8156 149.07C22.1041 149.125 27.4734 149.326 32.7271 148.688C36.3209 148.251 36.4237 143.347 32.7271 143.014C27.4624 142.537 22.1025 142.821 16.8156 142.816C12.1268 142.813 7.02823 141.99 2.57683 143.547Z" fill="#3C3C3B" fill-opacity="0.15"/>
<path d="M4.33802 121.476C2.02291 121.896 1.74281 124.651 3.6544 125.795C7.65797 128.191 12.9734 128.387 17.5387 129.159C22.7529 130.04 28.024 131.08 33.3125 131.272C36.9316 131.403 37.7987 126.575 34.2002 125.667C29.0747 124.372 23.7372 123.814 18.5167 122.983C13.8849 122.245 8.97774 120.633 4.33802 121.476Z" fill="#3C3C3B" fill-opacity="0.15"/>
<path d="M9.52927 99.9527C7.17776 100.005 6.46882 102.682 8.17786 104.111C11.7573 107.104 16.9762 108.129 21.3643 109.606C26.3775 111.293 31.4208 113.144 36.6144 114.16C40.1669 114.856 41.7794 110.223 38.3677 108.764C33.508 106.684 28.3224 105.297 23.2965 103.659C18.8388 102.205 14.2434 99.8467 9.52927 99.9527Z" fill="#3C3C3B" fill-opacity="0.15"/>
<path d="M18.0181 79.5036C15.6871 79.1871 14.5683 81.7206 16.0336 83.3996C19.1004 86.9142 24.0946 88.7435 28.1994 90.8893C32.8866 93.3389 37.5785 95.9563 42.549 97.7729C45.9496 99.0167 48.2663 94.6935 45.1252 92.717C40.65 89.9019 35.7461 87.7212 31.0383 85.3175C26.8607 83.186 22.691 80.1366 18.0181 79.5036Z" fill="#3C3C3B" fill-opacity="0.15"/>
<path d="M29.6022 60.6336C27.3488 59.9564 25.8487 62.2841 27.0324 64.1704C29.5121 68.1217 34.1581 70.7106 37.8752 73.4704C42.1209 76.6242 46.3461 79.9425 50.9715 82.514C54.1364 84.2737 57.1019 80.3666 54.3073 77.9233C50.3274 74.4435 45.8254 71.5224 41.5513 68.4113C37.7597 65.6531 34.1185 61.9898 29.6022 60.6336Z" fill="#3C3C3B" fill-opacity="0.15"/>
<path d="M44.0014 43.8144C41.8825 42.7937 40.0358 44.8572 40.9093 46.9065C42.7402 51.198 46.9242 54.4801 50.165 57.7889C53.8647 61.5678 57.5185 65.5065 61.6851 68.7711C64.5351 71.0039 68.075 67.6096 65.6982 64.758C62.3118 60.699 58.3224 57.1085 54.5879 53.3676C51.2743 50.0476 48.2518 45.8605 44.0014 43.8144Z" fill="#3C3C3B" fill-opacity="0.15"/>
<path d="M60.8565 29.4525C58.9228 28.1121 56.777 29.8624 57.3198 32.0224C58.4576 36.5466 62.0766 40.4442 64.7589 44.2183C67.8225 48.5289 70.8148 52.9913 74.4196 56.8667C76.8851 59.5173 80.9124 56.7179 79.0103 53.5309C76.3011 48.9924 72.921 44.8211 69.8179 40.5422C67.0644 36.7475 64.7335 32.1379 60.8565 29.4525Z" fill="#3C3C3B" fill-opacity="0.15"/>
<path d="M79.7357 17.9008C78.0345 16.2756 75.6418 17.6666 75.8396 19.8852C76.2542 24.5328 79.2198 28.9478 81.2785 33.0954C83.63 37.8316 85.8881 42.7087 88.841 47.1C90.8618 50.1051 95.2768 47.9688 93.8969 44.5238C91.9315 39.6167 89.2461 34.969 86.8503 30.2565C84.7251 26.0772 83.1442 21.1606 79.7357 17.9008Z" fill="#3C3C3B" fill-opacity="0.15"/>
<path d="M100.197 9.44698C98.771 7.57496 96.19 8.57506 96.0381 10.7984C95.7216 15.4524 97.9592 20.2772 99.3438 24.697C100.925 29.7434 102.393 34.9132 104.623 39.7112C106.148 42.9947 110.843 41.5768 110.019 37.9578C108.845 32.8038 106.921 27.7938 105.291 22.7648C103.847 18.3039 103.055 13.1989 100.197 9.44698Z" fill="#3C3C3B" fill-opacity="0.15"/>
<path d="M121.737 4.29592C120.623 2.22451 117.915 2.80844 117.419 4.97955C116.377 9.52748 117.833 14.6419 118.51 19.2231C119.283 24.4546 119.924 29.789 121.375 34.8782C122.368 38.3595 127.228 37.6934 126.98 33.9905C126.627 28.7162 125.508 23.4656 124.685 18.2451C123.957 13.6133 123.971 8.44825 121.737 4.29592Z" fill="#3C3C3B" fill-opacity="0.15"/>
</svg>
