<svg width="60" height="40" viewBox="0 0 60 40" fill="none" xmlns="http://www.w3.org/2000/svg">
<path d="M15 40C10.8636 40 7.33 38.6813 4.39909 36.044C1.46636 33.4066 0 30.1832 0 26.3736C0 23.1083 1.06818 20.1988 3.20455 17.6452C5.34091 15.0916 8.13636 13.4589 11.5909 12.7473C12.6364 9.35636 14.58 6.50968 17.4218 4.20722C20.2618 1.90476 23.5455 0.502355 27.2727 0V20.2826L24.8182 18.0848C24.3182 17.6243 23.6936 17.394 22.9445 17.394C22.1936 17.394 21.5455 17.6452 21 18.1476C20.5 18.6081 20.25 19.1941 20.25 19.9058C20.25 20.6175 20.5 21.2036 21 21.664L28.0909 28.1947C28.6364 28.697 29.2727 28.9482 30 28.9482C30.7273 28.9482 31.3636 28.697 31.9091 28.1947L39 21.664C39.5 21.2036 39.7618 20.6275 39.7855 19.936C39.8073 19.246 39.5455 18.6499 39 18.1476C38.5 17.6871 37.8755 17.4459 37.1264 17.4242C36.3755 17.4041 35.7273 17.6243 35.1818 18.0848L32.7273 20.2826V0C37.4091 0.586081 41.3073 2.52182 44.4218 5.80722C47.5345 9.0943 49.0909 12.9566 49.0909 17.394C52.2273 17.7289 54.83 18.9739 56.8991 21.129C58.9664 23.2858 60 25.8085 60 28.697C60 31.8367 58.8073 34.5059 56.4218 36.7046C54.0345 38.9015 51.1364 40 47.7273 40H15Z" fill="url(#paint0_linear_1166_11343)"/>
<defs>
<linearGradient id="paint0_linear_1166_11343" x1="0" y1="20" x2="31.8478" y2="22.288" gradientUnits="userSpaceOnUse">
<stop stop-color="#FB8832"/>
<stop offset="1" stop-color="#FFAA2B"/>
</linearGradient>
</defs>
</svg>
