<svg width="469" height="133" viewBox="0 0 469 133" fill="none" xmlns="http://www.w3.org/2000/svg">
<path d="M23.2581 123.564H17.4835L9.98222 114.958H5.31226V123.564H0.457031V97.7812C4.53976 97.7812 8.62248 97.8197 12.7052 97.8197C18.7734 97.8582 21.9752 101.902 21.9752 106.352C21.9752 109.883 20.3568 113.452 15.4666 114.444L23.2651 123.235V123.567L23.2581 123.564ZM5.30876 102.343V110.582H12.7017C15.7917 110.582 17.1165 108.523 17.1165 106.464C17.1165 104.405 15.7568 102.346 12.7017 102.346H5.30876V102.343Z" fill="white"/>
<path d="M31.678 116.098C31.9716 118.342 33.9221 119.96 37.0855 119.96C38.7389 119.96 40.9096 119.335 41.9407 118.269L44.8105 121.1C42.8985 123.085 39.77 124.043 37.0121 124.043C30.7587 124.043 27.043 120.181 27.043 114.371C27.043 108.562 30.7936 104.881 36.68 104.881C42.5664 104.881 46.5373 108.632 45.8382 116.098H31.678ZM41.5352 112.382C41.2416 110.03 39.403 108.852 36.8268 108.852C34.3975 108.852 32.412 110.03 31.7514 112.382H41.5352Z" fill="white"/>
<path d="M67.8003 121.247C65.703 123.306 63.4974 124.117 60.8128 124.117C55.5521 124.117 51.1758 120.954 51.1758 114.519C51.1758 108.083 55.5521 104.92 60.8128 104.92C63.389 104.92 65.3744 105.654 67.3599 107.604L64.5285 110.583C63.4624 109.628 62.1376 109.149 60.8862 109.149C57.8696 109.149 55.664 111.355 55.664 114.519C55.664 117.976 58.0164 119.814 60.8128 119.814C62.246 119.814 63.6826 119.409 64.7837 118.308L67.8003 121.251V121.247Z" fill="white"/>
<path d="M91.1186 114.514C91.1186 119.737 87.5497 123.966 81.6668 123.966C75.7839 123.966 72.25 119.737 72.25 114.514C72.25 109.292 75.8539 105.062 81.6284 105.062C87.4029 105.062 91.1186 109.33 91.1186 114.514ZM76.7382 114.514C76.7382 117.272 78.3916 119.848 81.6668 119.848C84.9421 119.848 86.5955 117.276 86.5955 114.514C86.5955 111.753 84.6834 109.145 81.6668 109.145C78.43 109.145 76.7382 111.791 76.7382 114.514Z" fill="white"/>
<path d="M101.305 105.43L101.637 107.528C103.035 105.284 104.908 104.955 106.751 104.955C108.593 104.955 110.428 105.689 111.42 106.685L109.397 110.583C108.477 109.81 107.631 109.405 106.16 109.405C103.807 109.405 101.637 110.656 101.637 114.001V123.565H97.1484V105.434H101.305V105.43Z" fill="white"/>
<path d="M134.891 97.8551V123.564H130.696L130.402 121.062C129.004 123.232 126.76 123.966 124.554 123.966C119.22 123.966 115.211 120.436 115.211 114.476C115.211 108.223 119.147 104.989 124.443 104.989C126.355 104.989 129.336 106.021 130.402 107.894V97.8516H134.891V97.8551ZM119.699 114.48C119.699 117.643 121.978 119.814 124.848 119.814C127.718 119.814 130.109 117.755 130.109 114.48C130.109 111.204 127.679 109.184 124.848 109.184C122.017 109.184 119.699 111.208 119.699 114.48Z" fill="white"/>
<path d="M156.111 105.429H160.414V123.56H156.184L155.964 120.914C154.933 123.046 152.102 124.077 150.078 124.112C144.709 124.151 140.734 120.841 140.734 114.475C140.734 108.11 144.89 104.95 150.186 104.989C152.616 104.989 154.93 106.128 155.961 107.932L156.108 105.429H156.111ZM145.226 114.475C145.226 117.932 147.617 119.991 150.595 119.991C157.656 119.991 157.656 108.994 150.595 108.994C147.617 108.994 145.226 111.018 145.226 114.475Z" fill="white"/>
<path d="M172.037 128.972C173.103 130.37 175.973 130.552 176.413 129.119C176.819 127.759 174.683 126.91 173.288 127.867L172.222 127.056L173.362 123.785C169.387 122.865 166.482 119.81 166.482 114.515C166.482 108.079 170.859 104.916 176.119 104.916C178.696 104.916 180.681 105.65 182.667 107.601L179.835 110.579C178.769 109.624 177.444 109.146 176.193 109.146C173.176 109.146 170.971 111.351 170.971 114.515C170.971 117.972 173.323 119.81 176.119 119.81C177.553 119.81 178.989 119.405 180.09 118.304L183.107 121.247C181.083 123.232 179.024 124.043 176.486 124.117L176.046 125.515C179.43 125.627 180.164 127.832 179.835 129.633C178.916 133.75 172.33 134.121 170.086 130.587L172.037 128.968V128.972Z" fill="white"/>
<path d="M206.429 114.514C206.429 119.737 202.86 123.966 196.977 123.966C191.094 123.966 187.561 119.737 187.561 114.514C187.561 109.292 191.164 105.063 196.939 105.063C202.713 105.063 206.429 109.331 206.429 114.514ZM190.944 100.686C191.829 98.5156 193.262 96.9706 195.688 97.5228C197.418 97.9283 199.11 99.8404 200.249 97.5613L203.192 98.9595C202.126 101.791 200.288 102.637 198.557 102.196C196.754 101.682 195.174 99.5118 193.741 102.196L190.944 100.69V100.686ZM192.049 114.514C192.049 117.272 193.702 119.849 196.977 119.849C200.253 119.849 201.906 117.276 201.906 114.514C201.906 111.753 199.994 109.145 196.977 109.145C193.741 109.145 192.049 111.791 192.049 114.514Z" fill="white"/>
<path d="M216.285 116.098C216.579 118.342 218.53 119.96 221.693 119.96C223.346 119.96 225.517 119.335 226.548 118.269L229.418 121.1C227.506 123.085 224.377 124.043 221.62 124.043C215.366 124.043 211.65 120.181 211.65 114.371C211.65 108.562 215.401 104.881 221.287 104.881C227.174 104.881 231.145 108.632 230.446 116.098H216.285ZM226.143 112.382C225.849 110.03 224.01 108.852 221.434 108.852C219.005 108.852 217.019 110.03 216.359 112.382H226.143Z" fill="white"/>
<path d="M248.689 110.251C247.402 109.038 245.931 108.632 244.2 108.632C242.068 108.632 240.89 109.293 240.89 110.436C240.89 111.579 241.956 112.274 244.274 112.421C247.696 112.641 252.034 113.414 252.034 118.231C252.034 121.433 249.423 124.191 244.235 124.191C241.365 124.191 238.499 123.712 235.85 120.954L238.055 117.755C239.342 119.188 242.285 120.258 244.309 120.293C246 120.328 247.58 119.447 247.58 118.122C247.58 116.871 246.549 116.357 243.977 116.21C240.555 115.952 236.475 114.7 236.475 110.583C236.475 106.465 240.817 104.92 244.127 104.92C246.958 104.92 249.094 105.472 251.188 107.311L248.685 110.254L248.689 110.251Z" fill="white"/>
<path d="M272.045 116.098C272.339 118.342 274.289 119.96 277.453 119.96C279.106 119.96 281.277 119.335 282.308 118.269L285.178 121.1C283.266 123.085 280.137 124.043 277.379 124.043C271.126 124.043 267.41 120.181 267.41 114.371C267.41 108.562 271.161 104.881 277.047 104.881C282.934 104.881 286.904 108.632 286.205 116.098H272.045ZM281.902 112.382C281.609 110.03 279.77 108.852 277.194 108.852C274.765 108.852 272.779 110.03 272.119 112.382H281.902Z" fill="white"/>
<path d="M303.788 105.43H309.157V105.577L303.197 114.368L309.524 123.452V123.564H304.155L300.219 117.496L296.283 123.564H290.914V123.452L297.241 114.368L291.281 105.577V105.43H296.65L300.219 111.571L303.788 105.43Z" fill="white"/>
<path d="M330.308 121.247C328.211 123.306 326.005 124.117 323.321 124.117C318.06 124.117 313.684 120.954 313.684 114.519C313.684 108.083 318.06 104.92 323.321 104.92C325.897 104.92 327.882 105.654 329.868 107.604L327.036 110.583C325.97 109.628 324.645 109.149 323.394 109.149C320.377 109.149 318.172 111.355 318.172 114.519C318.172 117.976 320.524 119.814 323.321 119.814C324.754 119.814 326.19 119.409 327.292 118.308L330.308 121.251V121.247Z" fill="white"/>
<path d="M339.686 97.8555V123.565H335.236V97.8555H339.686Z" fill="white"/>
<path d="M351.162 105.43V114.92C351.162 117.678 352.669 119.775 355.538 119.775C358.408 119.775 360.173 117.458 360.173 114.7V105.43H364.623V123.599H360.614L360.32 121.135C358.443 122.974 356.716 123.858 354.179 123.858C349.837 123.858 346.674 120.586 346.674 114.958V105.433H351.162V105.43Z" fill="white"/>
<path d="M383.384 110.251C382.097 109.038 380.626 108.632 378.896 108.632C376.763 108.632 375.585 109.293 375.585 110.436C375.585 111.579 376.652 112.274 378.969 112.421C382.391 112.641 386.729 113.414 386.729 118.231C386.729 121.433 384.118 124.191 378.931 124.191C376.061 124.191 373.194 123.712 370.545 120.954L372.751 117.755C374.037 119.188 376.98 120.258 379.004 120.293C380.696 120.328 382.276 119.447 382.276 118.122C382.276 116.871 381.245 116.357 378.672 116.21C375.25 115.952 371.171 114.7 371.171 110.583C371.171 106.465 375.512 104.92 378.822 104.92C381.654 104.92 383.789 105.472 385.883 107.311L383.38 110.254L383.384 110.251Z" fill="white"/>
<path d="M397.432 100.319C397.432 103.814 392.137 103.814 392.137 100.319C392.137 96.8234 397.432 96.8234 397.432 100.319ZM392.539 105.359V123.564H397.027V105.359H392.539Z" fill="white"/>
<path d="M422.813 105.395L415.088 123.637H410.233L402.473 105.395H407.366L409.869 111.389L412.665 119.041L415.423 111.463L417.926 105.395H422.82H422.813Z" fill="white"/>
<path d="M442.306 105.429H446.609V123.56H442.38L442.16 120.914C441.128 123.046 438.297 124.077 436.273 124.112C430.904 124.151 426.93 120.841 426.93 114.475C426.93 108.11 431.086 104.95 436.381 104.989C438.811 104.989 441.125 106.128 442.156 107.932L442.303 105.429H442.306ZM431.421 114.475C431.421 117.932 433.812 119.991 436.79 119.991C443.851 119.991 443.851 108.994 436.79 108.994C433.812 108.994 431.421 111.018 431.421 114.475Z" fill="white"/>
<path d="M465.185 110.251C463.898 109.038 462.427 108.632 460.696 108.632C458.564 108.632 457.386 109.293 457.386 110.436C457.386 111.579 458.452 112.274 460.77 112.421C464.192 112.641 468.53 113.414 468.53 118.231C468.53 121.433 465.919 124.191 460.731 124.191C457.862 124.191 454.995 123.712 452.346 120.954L454.551 117.755C455.838 119.188 458.781 120.258 460.805 120.293C462.497 120.328 464.077 119.447 464.077 118.122C464.077 116.871 463.045 116.357 460.473 116.21C457.051 115.952 452.971 114.7 452.971 110.583C452.971 106.465 457.313 104.92 460.623 104.92C463.454 104.92 465.59 105.472 467.684 107.311L465.181 110.254L465.185 110.251Z" fill="white"/>
<path d="M243.192 87.685H201.246V31.6523H243.192V41.8976H211.733V54.7855H242.07V64.6322H211.733V77.2789H243.192V87.685Z" fill="white"/>
<path d="M289.863 31.5703H300.426V87.6833H293.865V87.7637L264.405 49.9006V87.6833H253.842V31.6507H262.406L289.863 66.3923V31.5703Z" fill="white"/>
<path d="M324.605 41.2579H306.834V31.6523H352.939V41.2579H335.168V87.685H324.602V41.2579H324.605Z" fill="white"/>
<path d="M458.366 45.179C456.444 41.9771 451.162 38.936 445.076 38.936C437.233 38.936 433.468 42.2183 433.468 46.3814C433.468 51.2646 439.232 52.6243 445.957 53.4248C457.643 54.865 468.531 57.906 468.531 71.2762C468.531 83.7621 457.485 89.1277 444.996 89.1277C433.548 89.1277 424.743 85.6042 420.58 75.359L429.385 70.7974C431.867 76.9599 438.351 79.6829 445.153 79.6829C451.956 79.6829 458.041 77.3619 458.041 71.2797C458.041 65.9981 452.518 63.8344 445.073 63.0339C433.625 61.6742 423.062 58.6331 423.062 46.0633C423.062 34.5387 434.429 29.8128 444.755 29.7324C453.48 29.7324 462.526 32.2142 466.766 40.8585L458.363 45.179H458.366Z" fill="white"/>
<path d="M48.7441 60.3215L59.3145 46.2207V87.768H48.7441V60.3215Z" fill="white"/>
<path d="M166.857 12.9892V23.0562H120.629L116.697 10.0705H74.7859L70.85 23.0562H34.6927V48.9612L47.2275 31.7355H59.3149V33.0218L48.7445 47.1191V47.1051L30.4981 71.4337H28.4113L10.5634 47.0317V87.7681H0V31.7355H12.1608L24.6257 48.8564V12.9892H36.4789V5.0335H55.3685V12.9892H63.3801L67.316 0H124.167L128.102 12.9892H166.857Z" fill="white"/>
<path d="M179.395 31.7363L161.855 55.8342L144.329 31.7363H132.168V31.9845V32.5892V46.669V87.7689H142.728V61.1124V47.0326L160.579 71.4345H162.666L180.909 47.106V87.7689H191.483V31.7363H179.395Z" fill="white"/>
<path d="M412.481 52.1775C411.813 49.7831 410.862 47.525 409.653 45.4592C408.444 43.3969 406.965 41.4813 405.252 39.7686C403.539 38.0558 401.624 36.5737 399.561 35.3677C397.496 34.1583 395.238 33.2075 392.843 32.5399C390.452 31.8723 387.935 31.5332 385.37 31.5332C382.804 31.5332 380.294 31.8723 377.917 32.5399C375.537 33.2075 373.279 34.1583 371.199 35.3677C369.123 36.5772 367.2 38.0558 365.491 39.7686C363.778 41.4813 362.293 43.3969 361.069 45.4627C359.849 47.525 358.892 49.7866 358.224 52.1775C357.556 54.5684 357.221 57.0817 357.221 59.6509C357.221 62.2201 357.56 64.7263 358.224 67.1033C358.892 69.4837 359.849 71.7453 361.069 73.8216C362.293 75.9014 363.778 77.8239 365.491 79.5332C367.204 81.246 369.126 82.7316 371.203 83.955C373.279 85.1749 375.541 86.1327 377.917 86.8003C380.298 87.4679 382.808 87.8035 385.37 87.8035C387.932 87.8035 390.449 87.4644 392.843 86.7968C395.234 86.1292 397.496 85.1714 399.558 83.9515C401.62 82.7316 403.536 81.2425 405.252 79.5297C406.965 77.8169 408.444 75.8979 409.653 73.8216C410.862 71.7453 411.813 69.4837 412.481 67.1033C413.148 64.7263 413.484 62.2166 413.484 59.6509C413.484 57.0852 413.145 54.5684 412.481 52.1775ZM385.37 77.6421C382.878 77.6421 380.508 77.1633 378.326 76.216C376.149 75.2722 374.223 73.9684 372.597 72.343C370.972 70.7176 369.668 68.7986 368.724 66.6349C367.781 64.4677 367.298 62.1187 367.298 59.6509C367.298 57.1831 367.777 54.8236 368.724 52.6285C369.668 50.4368 370.972 48.5108 372.601 46.8959C374.226 45.2844 376.152 43.9876 378.33 43.0438C380.511 42.1001 382.878 41.6177 385.373 41.6177C387.841 41.6177 390.204 42.0966 392.396 43.0438C394.584 43.9876 396.513 45.2844 398.125 46.8994C399.736 48.5108 401.033 50.4403 401.98 52.6285C402.924 54.8201 403.406 57.1831 403.406 59.6509C403.406 62.1187 402.928 64.4677 401.98 66.6349C401.037 68.7986 399.74 70.7176 398.128 72.343C396.517 73.9684 394.587 75.2722 392.396 76.2195C390.204 77.1632 387.841 77.6456 385.373 77.6456L385.37 77.6421Z" fill="white"/>
<path d="M103.715 55.3929C102.209 52.5406 99.2866 50.7089 96.0638 50.5656C95.882 50.5551 95.6967 50.5481 95.515 50.5446C93.8406 50.4957 92.1663 50.5446 90.5234 50.674C79.6874 51.5129 70.1133 55.648 70.1133 55.648C71.5709 46.5108 77.8663 38.9851 86.2904 35.7832C86.2904 35.7832 94.9522 42.0471 101.146 51.1424C102.069 52.4986 102.939 53.9178 103.715 55.3894V55.3929Z" fill="url(#paint0_linear_913_11611)"/>
<path d="M111.707 40.0203C111.707 40.0203 110.568 50.3984 105.824 60.1963C105.125 61.6399 104.346 63.0731 103.482 64.4573C105.09 61.8217 105.258 58.5464 103.916 55.778C103.877 55.6941 103.835 55.6137 103.79 55.5298C103.769 55.4844 103.744 55.4389 103.72 55.3935C102.944 53.9219 102.074 52.5027 101.151 51.1465C94.9567 42.0512 86.2949 35.7873 86.2949 35.7873C89.1193 34.7142 92.1848 34.127 95.3867 34.127C101.591 34.127 107.278 36.3326 111.711 40.0099V40.0203H111.707Z" fill="url(#paint1_linear_913_11611)"/>
<path d="M120.967 59.7103C120.967 61.133 120.851 62.5347 120.628 63.8944L120.614 63.9049C120.614 63.9049 111.074 68.082 100.238 68.886C98.6584 69.0013 97.047 69.0468 95.4355 68.9978C98.571 69.0537 101.525 67.4913 103.23 64.8557C103.276 64.7858 103.321 64.7158 103.367 64.6424C103.402 64.5865 103.437 64.5341 103.468 64.4782C103.475 64.4712 103.479 64.4642 103.482 64.4572C104.346 63.073 105.125 61.6398 105.824 60.1962C110.567 50.3983 111.707 40.0203 111.707 40.0203V40.0098C117.366 44.7007 120.967 51.7861 120.967 59.7103Z" fill="url(#paint2_linear_913_11611)"/>
<path d="M120.627 63.8945C119.127 72.9933 112.835 80.4771 104.422 83.6545L104.404 83.6475C104.404 83.6475 95.9591 77.429 89.8315 68.4002C88.9262 67.0649 88.0698 65.6667 87.3008 64.2196C88.8038 67.0055 91.6562 68.8127 94.8161 68.977C94.8335 68.977 94.851 68.977 94.8685 68.977C95.0048 68.984 95.1377 68.9875 95.2705 68.9944C95.3229 68.9944 95.3788 68.9944 95.4313 68.9979C97.0427 69.0469 98.6541 69.0014 100.234 68.8861C111.07 68.0856 120.609 63.905 120.609 63.905L120.623 63.8945H120.627Z" fill="url(#paint3_linear_913_11611)"/>
<path d="M104.422 83.6543C101.611 84.7135 98.5668 85.2972 95.3824 85.2972C89.2618 85.2972 83.6445 83.151 79.2402 79.5611V79.5402C79.2402 79.5402 80.3064 69.0467 85.0917 59.2034C85.7908 57.7633 86.5703 56.3162 87.4406 54.918C85.7768 57.6165 85.644 61.0036 87.0946 63.821C87.1226 63.8804 87.154 63.9363 87.1855 63.9957C87.2099 64.0447 87.2379 64.0936 87.2624 64.1426C87.2764 64.167 87.2868 64.188 87.3008 64.2125C88.0698 65.6596 88.9262 67.0578 89.8316 68.3931C95.9591 77.4219 104.404 83.6404 104.404 83.6404L104.422 83.6474V83.6543Z" fill="url(#paint4_linear_913_11611)"/>
<path d="M95.5186 50.5483C92.2958 50.4505 89.2407 52.0514 87.5279 54.7814C87.5 54.8268 87.4685 54.8758 87.444 54.9212C86.5736 56.3194 85.7942 57.7665 85.0951 59.2067C80.3062 69.0499 79.2401 79.5434 79.2401 79.5434V79.5644C73.4796 74.8734 69.7988 67.7217 69.7988 59.7135C69.7988 58.3328 69.9107 56.9765 70.1169 55.6552C70.1169 55.6552 79.6945 51.5201 90.527 50.6812C92.1699 50.5518 93.8443 50.5029 95.5186 50.5518V50.5483Z" fill="url(#paint5_linear_913_11611)"/>
<path d="M90.8093 58.1343C92.2379 58.1343 93.396 56.9762 93.396 55.5476C93.396 54.119 92.2379 52.9609 90.8093 52.9609C89.3807 52.9609 88.2227 54.119 88.2227 55.5476C88.2227 56.9762 89.3807 58.1343 90.8093 58.1343Z" fill="white"/>
<path d="M97.1296 58.8744C97.8149 58.8744 98.3705 58.3188 98.3705 57.6335C98.3705 56.9481 97.8149 56.3926 97.1296 56.3926C96.4442 56.3926 95.8887 56.9481 95.8887 57.6335C95.8887 58.3188 96.4442 58.8744 97.1296 58.8744Z" fill="white"/>
<path d="M93.5956 63.1111C93.9817 63.1111 94.2947 62.7981 94.2947 62.412C94.2947 62.0259 93.9817 61.7129 93.5956 61.7129C93.2095 61.7129 92.8965 62.0259 92.8965 62.412C92.8965 62.7981 93.2095 63.1111 93.5956 63.1111Z" fill="white"/>
<defs>
<linearGradient id="paint0_linear_913_11611" x1="75.3705" y1="61.1639" x2="98.3114" y2="41.8793" gradientUnits="userSpaceOnUse">
<stop offset="0.14" stop-color="#FFA404"/>
<stop offset="0.88" stop-color="#FF2A48"/>
</linearGradient>
<linearGradient id="paint1_linear_913_11611" x1="87.7071" y1="43.7151" x2="114.395" y2="54.2225" gradientUnits="userSpaceOnUse">
<stop stop-color="#99DA4E"/>
<stop offset="0.33" stop-color="#6CBE4D"/>
<stop offset="0.71" stop-color="#2D924D"/>
<stop offset="1" stop-color="#01774C"/>
</linearGradient>
<linearGradient id="paint2_linear_913_11611" x1="103.157" y1="44.837" x2="111.515" y2="74.2061" gradientUnits="userSpaceOnUse">
<stop offset="0.18" stop-color="#04C9FE"/>
<stop offset="0.84" stop-color="#182AB4"/>
</linearGradient>
<linearGradient id="paint3_linear_913_11611" x1="110.658" y1="59.9901" x2="92.1071" y2="79.9143" gradientUnits="userSpaceOnUse">
<stop stop-color="#FEBEC1"/>
<stop offset="0.49" stop-color="#D949BE"/>
<stop offset="1" stop-color="#7552F6"/>
</linearGradient>
<linearGradient id="paint4_linear_913_11611" x1="105.037" y1="74.3424" x2="77.1639" y2="66.6663" gradientUnits="userSpaceOnUse">
<stop stop-color="#FF14A9"/>
<stop offset="0.49" stop-color="#810996"/>
<stop offset="1" stop-color="#3D00A6"/>
</linearGradient>
<linearGradient id="paint5_linear_913_11611" x1="88.3179" y1="75.4257" x2="80.3692" y2="49.6535" gradientUnits="userSpaceOnUse">
<stop offset="0.03" stop-color="#FF1C21"/>
<stop offset="1" stop-color="#8D000C"/>
</linearGradient>
</defs>
</svg>
