<svg width="1187" height="634" viewBox="0 0 1187 634" fill="none" xmlns="http://www.w3.org/2000/svg">
<g opacity="0.5">
<path d="M1083.61 580.549H880.766V576.323H1079.39V377.697H1083.61V580.549Z" fill="#FFF9F9"/>
<path d="M301.797 580.549H98.9453V377.697H103.171V576.323H301.797V580.549Z" fill="#FFF9F9"/>
<path d="M103.171 257.556H98.9453V54.7051H301.797V58.9312H103.171V257.556Z" fill="#FFF9F9"/>
<path d="M1083.61 257.556H1079.39V58.9312H880.766V54.7051H1083.61V257.556Z" fill="#FFF9F9"/>
<path d="M912.67 462.482H710.875V460.369H910.556V174.886H710.875V172.773H912.67V462.482Z" fill="#FFF9F9"/>
<path d="M471.693 462.482H269.898V172.773H471.693V174.886H272.011V460.369H471.693V462.482Z" fill="#FFF9F9"/>
<path d="M1053.72 107.118H990.867V76.2539H1053.72V107.118ZM992.98 105.005H1051.61V78.367H992.98V105.005Z" fill="#FFF9F9"/>
<path d="M992.983 101.726H984.914V82.2441H992.983V101.726ZM987.027 99.6127H990.87V84.3576H987.027V99.6127Z" fill="#FFF9F9"/>
<path d="M1039.59 101.541H1047.77V81.5293H1039.59V101.541Z" fill="#189A00"/>
<path d="M1027.95 101.541H1036.13V81.5293H1027.95V101.541Z" fill="#189A00"/>
<path d="M1016.34 101.541H1024.52V81.5293H1016.34V101.541Z" fill="#189A00"/>
<path d="M1004.7 101.541H1012.89V81.5293H1004.7V101.541Z" fill="#189A00"/>
<path d="M952.077 542.514V556.079H948.239V550.788H943.008V556.079H939.172V542.514H943.008V547.61H948.239V542.514H952.077Z" fill="white"/>
<path d="M954.797 542.514H961.21C962.696 542.514 964.013 542.794 965.164 543.347C966.314 543.905 967.205 544.693 967.836 545.712C968.469 546.731 968.787 547.928 968.787 549.296C968.787 550.665 968.47 551.861 967.836 552.881C967.205 553.902 966.313 554.688 965.164 555.245C964.013 555.801 962.696 556.079 961.21 556.079H954.797V542.514ZM961.056 553.017C962.218 553.017 963.152 552.687 963.856 552.028C964.56 551.37 964.912 550.459 964.912 549.296C964.912 548.134 964.56 547.222 963.856 546.564C963.152 545.906 962.218 545.576 961.056 545.576H958.633V553.017H961.056Z" fill="white"/>
<path d="M1017.31 562.734H983.125C979.294 562.734 976.188 559.628 976.188 555.797V542.209C976.188 538.378 979.294 535.271 983.125 535.271H1017.31C1021.14 535.271 1024.24 538.378 1024.24 542.209V555.797C1024.24 559.628 1021.14 562.734 1017.31 562.734Z" fill="white"/>
<path d="M998.158 552.946H996.144V555.542H992.405V552.946H985.234V550.448L991.32 541.98H995.292L989.768 549.904H992.52V547.597H996.144V549.904H998.158V552.946Z" fill="#121111"/>
<path d="M1004.86 550.622L1003.43 552.154V555.542H999.625V541.98H1003.43V547.618L1008.68 541.98H1012.9L1007.36 547.985L1013.19 555.542H1008.73L1004.86 550.622Z" fill="#121111"/>
<path d="M1042.33 550.269C1042.67 550.801 1042.84 551.408 1042.84 552.091C1042.84 552.943 1042.59 553.694 1042.1 554.338C1041.61 554.986 1040.92 555.481 1040.03 555.832C1039.14 556.179 1038.11 556.354 1036.95 556.354C1035.78 556.354 1034.76 556.179 1033.87 555.832C1032.97 555.482 1032.28 554.986 1031.79 554.338C1031.3 553.694 1031.05 552.943 1031.05 552.091C1031.05 551.408 1031.22 550.801 1031.56 550.269C1031.89 549.741 1032.37 549.295 1032.99 548.932C1032.53 548.61 1032.17 548.216 1031.92 547.752C1031.67 547.285 1031.54 546.769 1031.54 546.2C1031.54 545.413 1031.77 544.718 1032.22 544.12C1032.67 543.517 1033.31 543.055 1034.13 542.733C1034.95 542.411 1035.89 542.248 1036.95 542.248C1038 542.248 1038.95 542.411 1039.76 542.733C1040.59 543.055 1041.22 543.517 1041.67 544.12C1042.13 544.718 1042.35 545.413 1042.35 546.2C1042.35 546.769 1042.23 547.285 1041.97 547.752C1041.72 548.216 1041.36 548.61 1040.9 548.932C1041.52 549.295 1042 549.741 1042.33 550.269ZM1038.43 553.205C1038.8 552.902 1038.98 552.493 1038.98 551.975C1038.98 551.458 1038.8 551.049 1038.43 550.744C1038.06 550.442 1037.57 550.29 1036.95 550.29C1036.33 550.29 1035.83 550.442 1035.46 550.744C1035.1 551.049 1034.91 551.457 1034.91 551.975C1034.91 552.493 1035.09 552.902 1035.46 553.205C1035.83 553.509 1036.32 553.661 1036.95 553.661C1037.57 553.661 1038.06 553.508 1038.43 553.205ZM1035.78 545.321C1035.49 545.572 1035.34 545.923 1035.34 546.375C1035.34 546.814 1035.48 547.161 1035.77 547.413C1036.06 547.665 1036.46 547.788 1036.95 547.788C1037.44 547.788 1037.83 547.665 1038.13 547.413C1038.43 547.161 1038.57 546.814 1038.57 546.375C1038.57 545.923 1038.43 545.572 1038.13 545.321C1037.83 545.069 1037.44 544.941 1036.95 544.941C1036.47 544.941 1036.08 545.069 1035.78 545.321Z" fill="white"/>
<path d="M1050.02 551.16L1048.59 552.691V556.083H1044.79V542.518H1048.59V548.157L1053.84 542.518H1058.06L1052.52 548.527L1058.35 556.083H1053.9L1050.02 551.16Z" fill="white"/>
<path d="M205.218 554.946H134.415C130.584 554.946 127.477 551.84 127.477 548.008V534.422C127.477 530.591 130.584 527.484 134.415 527.484H205.218C209.05 527.484 212.156 530.591 212.156 534.422V548.008C212.156 551.84 209.049 554.946 205.218 554.946Z" fill="white"/>
<path d="M150.202 544.132H148.109V547.735H144.273V534.174H150.473C151.7 534.174 152.766 534.376 153.67 534.785C154.574 535.189 155.272 535.771 155.763 536.526C156.254 537.282 156.499 538.171 156.499 539.192C156.499 540.174 156.269 541.029 155.811 541.759C155.352 542.49 154.697 543.059 153.845 543.472L156.77 547.735H152.662L150.202 544.132ZM152.023 537.719C151.623 537.37 151.028 537.195 150.241 537.195H148.11V541.169H150.241C151.029 541.169 151.623 540.995 152.023 540.653C152.423 540.311 152.625 539.823 152.625 539.192C152.625 538.559 152.423 538.068 152.023 537.719Z" fill="#121111"/>
<path d="M167.699 545.102H161.964L160.899 547.735H156.984L162.972 534.174H166.75L172.757 547.735H168.765L167.699 545.102ZM166.575 542.271L164.831 537.932L163.088 542.271H166.575Z" fill="#121111"/>
<path d="M194.369 534.174L189.971 547.735H185.862L183.266 539.481L180.554 547.735H176.445L172.047 534.174H176L178.731 542.834L181.6 534.174H185.126L187.858 542.911L190.706 534.174H194.369Z" fill="#121111"/>
<path d="M159.1 97.9959H157.008V101.601H153.172V88.0352H159.372C160.599 88.0352 161.664 88.2393 162.569 88.6462C163.473 89.0549 164.17 89.6366 164.661 90.3919C165.152 91.1471 165.398 92.0343 165.398 93.0537C165.398 94.0362 165.168 94.8923 164.71 95.6206C164.251 96.3511 163.595 96.9249 162.743 97.3375L165.668 101.601H161.561L159.1 97.9959ZM160.922 91.5823C160.521 91.2336 159.927 91.0605 159.14 91.0605H157.008V95.0309H159.14C159.927 95.0309 160.521 94.8616 160.922 94.5189C161.322 94.1766 161.523 93.6893 161.523 93.0537C161.523 92.4222 161.322 91.9311 160.922 91.5823Z" fill="white"/>
<path d="M178.397 98.6353V101.601H167.508V88.0352H178.145V91.0025H171.305V93.289H177.331V96.1549H171.305V98.6353H178.397Z" fill="white"/>
<path d="M183.438 100.97C182.308 100.37 181.419 99.5335 180.773 98.4607C180.127 97.3897 179.805 96.1742 179.805 94.8186C179.805 93.4631 180.127 92.2494 180.773 91.1766C181.419 90.1037 182.308 89.2677 183.438 88.6673C184.568 88.0647 185.843 87.7656 187.265 87.7656C188.506 87.7656 189.622 87.9865 190.617 88.4237C191.612 88.8654 192.438 89.4965 193.097 90.3223L190.655 92.5325C189.777 91.4741 188.712 90.9436 187.458 90.9436C186.722 90.9436 186.066 91.1067 185.491 91.4286C184.917 91.7504 184.471 92.2065 184.155 92.7948C183.838 93.3807 183.679 94.0574 183.679 94.819C183.679 95.5803 183.838 96.2573 184.155 96.8433C184.471 97.4315 184.917 97.8873 185.491 98.2095C186.066 98.5336 186.722 98.6945 187.458 98.6945C188.711 98.6945 189.777 98.1639 190.655 97.1055L193.097 99.3157C192.438 100.141 191.612 100.775 190.617 101.214C189.622 101.652 188.506 101.872 187.265 101.872C185.843 101.872 184.568 101.573 183.438 100.97Z" fill="white"/>
</g>
<path d="M144 94.5C144 99.7466 139.747 104 134.5 104C129.253 104 125 99.7466 125 94.5C125 89.2534 129.253 85 134.5 85C139.747 85 144 89.2534 144 94.5Z" fill="#FF0000"><animate attributeName="opacity" dur="1s" repeatCount="indefinite" values="1;0;1"/></path>
</svg>
