<svg width="421" height="776" viewBox="0 0 421 776" fill="none" xmlns="http://www.w3.org/2000/svg">
<path d="M40 36.5001C40 38.9854 37.9854 41.0002 35.4999 41.0002C33.0146 41.0002 31 38.9854 31 36.5001C31 34.0148 33.0146 32 35.4999 32C37.9854 32 40 34.0148 40 36.5001Z" fill="#FF0000"> <animate attributeName="opacity" dur="1s" repeatCount="indefinite" values="1;0;1"/> </path>
<g opacity="0.5">
<path d="M392.893 744.999L316.898 744.999V743.415L391.31 743.415V669.004H392.893V744.999Z" fill="#FFF9F9"/>
<path d="M99.9948 744.999L24 744.999L24 669.004H25.5832L25.5832 743.415L99.9948 743.415V744.999Z" fill="#FFF9F9"/>
<path d="M25.5832 97.9948H24L24 22L99.9948 22V23.5832L25.5832 23.5832L25.5832 97.9948Z" fill="#FFF9F9"/>
<path d="M392.893 97.9948H391.31V23.5832L316.898 23.5832V22L392.893 22V97.9948Z" fill="#FFF9F9"/>
<path d="M361.833 590.998H266.781V588.139H360.838V201.857L266.781 201.857V198.998L361.833 198.998V590.998Z" fill="#FFF9F9"/>
<path d="M154.114 590.998H59.0625V198.998L154.114 198.998V201.857L60.0578 201.857V588.139H154.114V590.998Z" fill="#FFF9F9"/>
<path d="M381.686 41.6349L358.141 41.6349V30.0723L381.686 30.0723V41.6349ZM358.932 40.8433L380.894 40.8433V30.8639L358.932 30.8639V40.8433Z" fill="#FFF9F9"/>
<path d="M358.937 39.6149H355.914V32.3164H358.937V39.6149ZM356.706 38.8232H358.145V33.1082H356.706V38.8232Z" fill="#FFF9F9"/>
<path d="M376.395 39.5449H379.461V32.048H376.395V39.5449Z" fill="#189A00"/>
<path d="M372.043 39.5449H375.109V32.048H372.043V39.5449Z" fill="#189A00"/>
<path d="M367.684 39.5449H370.75V32.048H367.684V39.5449Z" fill="#189A00"/>
<path d="M363.332 39.5449H366.398V32.048H363.332V39.5449Z" fill="#189A00"/>
<path d="M343.608 730.75V735.832H342.17V733.85H340.211V735.832H338.773V730.75H340.211V732.659H342.17V730.75H343.608Z" fill="white"/>
<path d="M344.625 730.75H347.028C347.584 730.75 348.078 730.855 348.509 731.062C348.94 731.271 349.273 731.566 349.51 731.948C349.747 732.33 349.866 732.779 349.866 733.291C349.866 733.804 349.747 734.252 349.51 734.634C349.273 735.017 348.939 735.311 348.509 735.52C348.078 735.728 347.584 735.832 347.028 735.832H344.625V730.75ZM346.97 734.685C347.405 734.685 347.755 734.561 348.019 734.315C348.282 734.068 348.415 733.726 348.415 733.291C348.415 732.856 348.283 732.514 348.019 732.268C347.755 732.021 347.405 731.897 346.97 731.897H346.062V734.685H346.97Z" fill="white"/>
<path d="M368.046 738.323H355.24C353.804 738.323 352.641 737.16 352.641 735.724V730.634C352.641 729.199 353.804 728.035 355.24 728.035H368.046C369.481 728.035 370.645 729.199 370.645 730.634V735.724C370.645 737.16 369.481 738.323 368.046 738.323Z" fill="white"/>
<path d="M360.865 734.657H360.111V735.629H358.71V734.657H356.023V733.721L358.303 730.549H359.791L357.722 733.517H358.753V732.653H360.11V733.517H360.865L360.865 734.657Z" fill="#121111"/>
<path d="M363.374 733.786L362.836 734.36V735.629H361.414V730.549H362.836V732.661L364.804 730.549H366.386L364.311 732.798L366.495 735.629H364.825L363.374 733.786Z" fill="#121111"/>
<path d="M377.42 733.655C377.546 733.855 377.609 734.082 377.609 734.338C377.609 734.657 377.517 734.938 377.334 735.18C377.15 735.422 376.891 735.608 376.557 735.739C376.223 735.869 375.838 735.935 375.402 735.935C374.967 735.935 374.582 735.869 374.248 735.739C373.914 735.608 373.655 735.423 373.471 735.18C373.287 734.938 373.195 734.657 373.195 734.338C373.195 734.082 373.259 733.855 373.385 733.655C373.51 733.457 373.689 733.29 373.921 733.154C373.747 733.034 373.613 732.886 373.518 732.712C373.424 732.537 373.377 732.344 373.377 732.131C373.377 731.836 373.462 731.576 373.631 731.352C373.801 731.126 374.039 730.953 374.346 730.832C374.653 730.712 375.006 730.65 375.402 730.65C375.799 730.65 376.151 730.711 376.458 730.832C376.766 730.953 377.004 731.126 377.173 731.352C377.343 731.576 377.428 731.836 377.428 732.131C377.428 732.344 377.381 732.537 377.286 732.712C377.192 732.886 377.058 733.034 376.883 733.154C377.115 733.29 377.294 733.457 377.42 733.655ZM375.957 734.755C376.096 734.642 376.165 734.489 376.165 734.295C376.165 734.101 376.096 733.947 375.957 733.833C375.82 733.72 375.634 733.663 375.402 733.663C375.17 733.663 374.985 733.72 374.847 733.833C374.709 733.948 374.64 734.101 374.64 734.295C374.64 734.489 374.709 734.642 374.847 734.755C374.985 734.869 375.17 734.926 375.402 734.926C375.634 734.926 375.82 734.869 375.957 734.755ZM374.967 731.801C374.855 731.896 374.8 732.027 374.8 732.196C374.8 732.361 374.854 732.491 374.963 732.585C375.072 732.68 375.218 732.726 375.402 732.726C375.587 732.726 375.734 732.68 375.845 732.585C375.957 732.491 376.012 732.361 376.012 732.196C376.012 732.027 375.957 731.896 375.845 731.801C375.734 731.707 375.587 731.659 375.402 731.659C375.223 731.659 375.078 731.707 374.967 731.801Z" fill="white"/>
<path d="M380.303 733.99L379.766 734.563V735.834H378.344V730.752H379.766V732.865L381.734 730.752H383.316L381.24 733.003L383.424 735.834H381.755L380.303 733.99Z" fill="white"/>
<path d="M63.8115 735.405H37.2867C35.8512 735.405 34.6875 734.242 34.6875 732.806V727.716C34.6875 726.281 35.8512 725.117 37.2867 725.117H63.8117C65.2472 725.117 66.4109 726.281 66.4109 727.716V732.806C66.4107 734.242 65.2471 735.405 63.8115 735.405Z" fill="white"/>
<path d="M43.2054 731.356H42.4215V732.706H40.9844V727.625H43.3071C43.7667 727.625 44.1659 727.701 44.5049 727.854C44.8435 728.005 45.1047 728.223 45.2887 728.506C45.4726 728.789 45.5646 729.122 45.5646 729.505C45.5646 729.873 45.4785 730.193 45.3069 730.467C45.1348 730.74 44.8893 730.954 44.5701 731.108L45.666 732.706H44.1271L43.2054 731.356ZM43.8877 728.953C43.7377 728.822 43.5151 728.757 43.2202 728.757H42.4216V730.246H43.2202C43.5152 730.246 43.7377 730.181 43.8877 730.052C44.0377 729.924 44.113 729.742 44.113 729.505C44.113 729.268 44.0375 729.084 43.8877 728.953Z" fill="#121111"/>
<path d="M49.7641 731.719H47.6155L47.2165 732.706H45.75L47.9931 727.625H49.4085L51.6589 732.706H50.1633L49.7641 731.719ZM49.3431 730.659L48.6899 729.033L48.0366 730.659H49.3431Z" fill="#121111"/>
<path d="M59.7533 727.625L58.1055 732.706H56.5663L55.5938 729.613L54.5776 732.706H53.0384L51.3906 727.625H52.8718L53.8949 730.87L54.9696 727.625H56.2906L57.3141 730.898L58.3809 727.625H59.7533Z" fill="#121111"/>
<path d="M46.5335 38.2179H45.7496V39.5685H44.3125V34.4863H46.6352C47.0948 34.4863 47.4941 34.5628 47.833 34.7152C48.1716 34.8683 48.4328 35.0863 48.6168 35.3692C48.8008 35.6521 48.8928 35.9846 48.8928 36.3664C48.8928 36.7345 48.8066 37.0553 48.635 37.3281C48.463 37.6018 48.2176 37.8167 47.8982 37.9713L48.9941 39.5685H47.4552L46.5335 38.2179ZM47.2158 35.8152C47.0658 35.6846 46.8432 35.6197 46.5483 35.6197H45.7497V37.1071H46.5483C46.8433 37.1071 47.0658 37.0437 47.2158 36.9154C47.3658 36.7871 47.4412 36.6046 47.4412 36.3664C47.4412 36.1299 47.3658 35.9459 47.2158 35.8152Z" fill="white"/>
<path d="M53.7591 38.4575V39.5685H49.6797V34.4863H53.6648V35.598H51.1021V36.4546H53.3598V37.5283H51.1021V38.4575H53.7591Z" fill="white"/>
<path d="M55.6579 39.3315C55.2342 39.1066 54.9014 38.7934 54.6594 38.3915C54.4174 37.9903 54.2969 37.5349 54.2969 37.0271C54.2969 36.5192 54.4174 36.0645 54.6594 35.6626C54.9014 35.2607 55.2342 34.9475 55.6579 34.7226C56.0811 34.4968 56.5588 34.3848 57.0916 34.3848C57.5562 34.3848 57.9743 34.4675 58.3474 34.6313C58.72 34.7968 59.0295 35.0332 59.2762 35.3426L58.3616 36.1706C58.0326 35.7741 57.6334 35.5753 57.1637 35.5753C56.8881 35.5753 56.6422 35.6365 56.4269 35.757C56.2117 35.8776 56.0446 36.0485 55.9263 36.2688C55.8076 36.4884 55.7482 36.7419 55.7482 37.0272C55.7482 37.3124 55.8077 37.566 55.9263 37.7855C56.0446 38.0059 56.2117 38.1767 56.4269 38.2974C56.6422 38.4188 56.8881 38.4791 57.1637 38.4791C57.6333 38.4791 58.0326 38.2803 58.3616 37.8838L59.2762 38.7118C59.0295 39.021 58.7199 39.2585 58.3474 39.4231C57.9743 39.5869 57.5562 39.6696 57.0916 39.6696C56.5588 39.6693 56.0811 39.5573 55.6579 39.3315Z" fill="white"/>
</g>
</svg>
