<svg xmlns="http://www.w3.org/2000/svg" viewBox="0 0 274.04 43.06"><defs><style>.cls-1{fill:#ba6ba3;}.cls-2{fill:#e27f41;}.cls-3{fill:#77569c;}.cls-4{fill:#070102;}.cls-5{fill:#27b1bd;}.cls-6{fill:#4ea259;}.cls-7{fill:#e8cd45;}.cls-8{fill:#b5c655;}.cls-9{fill:#e7a850;}.cls-10{fill:#060001;}</style></defs><title>アセット 1</title><g id="レイヤー_2" data-name="レイヤー 2"><g id="レイヤー_1-2" data-name="レイヤー 1"><path class="cls-1" d="M21.17,0V7.58A45.8,45.8,0,0,1,31.76,8.76V1.19A45.24,45.24,0,0,0,21.17,0"/><path class="cls-2" d="M0,8.84v7.59c0-4.89,9.48-8.85,21.17-8.85V0C9.48,0,0,4,0,8.84"/><path class="cls-3" d="M31.76,1.19V8.76l-.18,0c6.43,1.52,10.76,4.39,10.76,7.7V8.84c0-3.26-4.26-6.12-10.58-7.65"/><path class="cls-4" d="M31.76,1.19l-.18,0,.18,0"/><path class="cls-5" d="M21.17,7.58v7.58c11.69,0,21.17,4,21.17,8.85V16.43c0-4.89-9.48-8.85-21.17-8.85"/><path class="cls-6" d="M0,24v7.58c0,3.27,4.26,6.13,10.58,7.66V31.67l.2,0C4.35,30.2,0,27.32,0,24"/><path class="cls-7" d="M31.76,24.13v7.58c6.32-1.53,10.58-4.39,10.58-7.66V16.47c0,3.27-4.26,6.13-10.58,7.66"/><path class="cls-8" d="M21.17,32.85a45.74,45.74,0,0,1-10.59-1.18v7.58a45.74,45.74,0,0,0,10.59,1.18c11.69,0,21.17-4,21.17-8.84V24c0,4.88-9.48,8.84-21.17,8.84"/><path class="cls-9" d="M0,8.84v7.59c0,4.88,9.48,8.84,21.17,8.84V17.69C9.48,17.69,0,13.73,0,8.84"/><path class="cls-10" d="M75,9.52a15,15,0,0,0-6.08-1.58c-2.12,0-4.9.73-4.9,3.93,0,2.23,2.16,3.31,5,4.66,4.35,2.08,8,4,8,9.16,0,6.51-4.38,8.71-9.24,8.71a25.24,25.24,0,0,1-9.35-1.85l1.19-4.28a20.32,20.32,0,0,0,7.93,1.93c2.23,0,4.66-.93,4.66-4.24,0-2.39-1.89-3.81-5.78-5.54-4.19-1.89-7.08-3.55-7.08-8.28,0-6.47,5.2-8.32,9.09-8.32A19.67,19.67,0,0,1,76.3,5.44"/><path class="cls-10" d="M85.66,11.18a13.57,13.57,0,0,1,.73,2.92,10.21,10.21,0,0,1,7.12-3c5.78,0,7.32,3.62,7.32,7.62V33.89H96.21v-14c0-2.85-1-5-4.08-5a7.79,7.79,0,0,0-5.55,2.39V33.89H82V16.37a17.53,17.53,0,0,0-.54-4.62"/><path class="cls-10" d="M124.55,33.59l-3.89.69a7.94,7.94,0,0,1-1.43-3.66,7.54,7.54,0,0,1-6.77,3.78c-3.43,0-7.24-1.74-7.24-7,0-5.4,2.89-7,13.44-7.47V18.45c0-2.27-.43-3.77-4-3.77A14.45,14.45,0,0,0,108,16.45l-1-3.85a20.69,20.69,0,0,1,8.2-1.77c5.89,0,7.81,2.46,7.81,7.59v8.7c0,2.85.51,5.23,1.55,6.47m-15-6.28c0,2.73,2.27,3.31,3.81,3.31a5.41,5.41,0,0,0,5.32-4.12V23.38c-7,.39-9.13,1-9.13,3.93"/><path class="cls-10" d="M140.6,10.91c5.78,0,8.74,4.23,8.74,11.32,0,6.58-2.39,12.2-9.43,12.2a8.55,8.55,0,0,1-6.16-2.54V42.75H129.2V16.37a17.53,17.53,0,0,0-.54-4.62l4.2-.57a8.73,8.73,0,0,1,.81,3.15,8.49,8.49,0,0,1,6.89-3.42m-7,13.55a18.59,18.59,0,0,0,.23,3.47,6.33,6.33,0,0,0,5.27,2.65c4.16,0,5.51-3.46,5.51-8.24,0-4.23-1.39-7.51-5.05-7.51a6.28,6.28,0,0,0-5.73,3.66,16.66,16.66,0,0,0-.23,3Z"/><path class="cls-10" d="M174.47,25.58c0,6.12-4.39,8.31-10.4,8.31h-9.13V4.32h8.55c5,0,9.86,1.35,9.86,7.28a6.38,6.38,0,0,1-4.54,6.51c2.42.42,5.66,2.15,5.66,7.43m-5.66-13.17c0-3-2.08-4.2-5.89-4.2h-3.35v8.59h5.27c2.23-.31,4-1.58,4-4.35Zm-9.24,17.56h4.11c3.2,0,6-.69,6-4.85,0-3.24-2.12-4.78-6.08-4.78h-4Z"/><path class="cls-10" d="M191.56,11.21l-.23,4.12c-2.62,0-5.62.89-6.7,3.28V33.89H180V17.22a21.8,21.8,0,0,0-.54-5.47l4.24-.58a15.69,15.69,0,0,1,.77,3.39c1.15-1.92,4-3.35,7.08-3.35"/><path class="cls-10" d="M200.44,8.17h-4.81V3.94h4.81Zm-.07,25.72h-4.66V11.52h4.66Z"/><path class="cls-10" d="M214,34.43c-5.82,0-8.78-4.23-8.78-11.28,0-6.58,2.42-12.25,9.43-12.25a9,9,0,0,1,6.2,2.47v-10l4.51-.69v23.6a19.11,19.11,0,0,0,.92,7.16l-4,.77a8.31,8.31,0,0,1-1-3.27,8.67,8.67,0,0,1-7.23,3.54m7-13.51a18.66,18.66,0,0,0-.24-3.47,6.55,6.55,0,0,0-5.27-2.65c-4.16,0-5.55,3.5-5.55,8.27,0,4.2,1.39,7.47,5.05,7.47a6.33,6.33,0,0,0,5.77-3.66,16.49,16.49,0,0,0,.24-3Z"/><path class="cls-10" d="M239.86,39.28c4.89,0,6-3.27,6-5.93V30.93a8,8,0,0,1-6.89,3.5c-5.85,0-8.78-4.23-8.78-11.28,0-6.58,2.39-12.25,9.44-12.25a8.77,8.77,0,0,1,6.58,2.74,12.31,12.31,0,0,1,.31-2.12h4.16a32.07,32.07,0,0,0-.31,4.24V33.89c0,7-5.47,9.17-10.51,9.17a24.59,24.59,0,0,1-8.51-1.62l1-3.89a19.4,19.4,0,0,0,7.55,1.73m6.08-18.36a19.61,19.61,0,0,0-.23-3.47,6.57,6.57,0,0,0-5.27-2.65c-4.16,0-5.51,3.5-5.51,8.27,0,4.2,1.35,7.47,5,7.47a6.34,6.34,0,0,0,5.77-3.66,17.52,17.52,0,0,0,.23-3Z"/><path class="cls-10" d="M266.38,30.62a17.4,17.4,0,0,0,6.51-1.27l.84,3.7a19.32,19.32,0,0,1-7.74,1.5c-8,0-11.28-5-11.28-11.55,0-6.9,3.66-12.25,10.67-12.25,6.2,0,8.66,4.24,8.66,10.09v2.7H259.33c0,4.81,2.66,7.08,7,7.08m-1.46-16.29c-3.28,0-5.2,2.93-5.43,5.9h10.36c0-3.63-1.31-5.9-4.89-5.9Z"/></g></g></svg>