<svg width="333" height="296" viewBox="0 0 333 296" fill="none" xmlns="http://www.w3.org/2000/svg">
<g opacity="0.5">
<path d="M301.797 249.549H98.9453V46.6973H103.171V245.323H301.797V249.549Z" fill="#FFF9F9"/>
<path d="M205.218 223.946H134.415C130.584 223.946 127.477 220.84 127.477 217.008V203.422C127.477 199.591 130.584 196.484 134.415 196.484H205.218C209.05 196.484 212.156 199.591 212.156 203.422V217.008C212.156 220.84 209.049 223.946 205.218 223.946Z" fill="white"/>
<path d="M150.202 213.132H148.109V216.735H144.273V203.174H150.473C151.7 203.174 152.766 203.376 153.67 203.785C154.574 204.189 155.272 204.771 155.763 205.526C156.254 206.282 156.499 207.171 156.499 208.192C156.499 209.174 156.269 210.029 155.811 210.759C155.352 211.49 154.697 212.059 153.845 212.472L156.77 216.735H152.662L150.202 213.132ZM152.023 206.719C151.623 206.37 151.028 206.195 150.241 206.195H148.11V210.169H150.241C151.029 210.169 151.623 209.995 152.023 209.653C152.423 209.311 152.625 208.823 152.625 208.192C152.625 207.559 152.423 207.068 152.023 206.719Z" fill="#121111"/>
<path d="M167.699 214.102H161.964L160.899 216.735H156.984L162.972 203.174H166.75L172.757 216.735H168.765L167.699 214.102ZM166.575 211.271L164.831 206.932L163.088 211.271H166.575Z" fill="#121111"/>
<path d="M194.369 203.174L189.971 216.735H185.862L183.266 208.481L180.554 216.735H176.445L172.047 203.174H176L178.731 211.834L181.6 203.174H185.126L187.858 211.911L190.706 203.174H194.369Z" fill="#121111"/>
</g>
</svg>
