<svg width="333" height="296" viewBox="0 0 333 296" fill="none" xmlns="http://www.w3.org/2000/svg">
<g opacity="0.5">
<path d="M103.171 257.556H98.9453V54.7051H301.797V58.9312H103.171V257.556Z" fill="#FFF9F9"/>
<path d="M159.1 97.9959H157.008V101.601H153.172V88.0352H159.372C160.599 88.0352 161.664 88.2393 162.569 88.6462C163.473 89.0549 164.17 89.6366 164.661 90.3919C165.152 91.1471 165.398 92.0343 165.398 93.0537C165.398 94.0362 165.168 94.8923 164.71 95.6206C164.251 96.3511 163.595 96.9249 162.743 97.3375L165.668 101.601H161.561L159.1 97.9959ZM160.922 91.5823C160.521 91.2336 159.927 91.0605 159.14 91.0605H157.008V95.0309H159.14C159.927 95.0309 160.521 94.8616 160.922 94.5189C161.322 94.1766 161.523 93.6893 161.523 93.0537C161.523 92.4222 161.322 91.9311 160.922 91.5823Z" fill="white"/>
<path d="M178.397 98.6353V101.601H167.508V88.0352H178.145V91.0025H171.305V93.289H177.331V96.1549H171.305V98.6353H178.397Z" fill="white"/>
<path d="M183.438 100.97C182.308 100.37 181.419 99.5335 180.773 98.4607C180.127 97.3897 179.805 96.1742 179.805 94.8186C179.805 93.4631 180.127 92.2494 180.773 91.1766C181.419 90.1037 182.308 89.2677 183.438 88.6673C184.568 88.0647 185.843 87.7656 187.265 87.7656C188.506 87.7656 189.622 87.9865 190.617 88.4237C191.612 88.8654 192.438 89.4965 193.097 90.3223L190.655 92.5325C189.777 91.4741 188.712 90.9436 187.458 90.9436C186.722 90.9436 186.066 91.1067 185.491 91.4286C184.917 91.7504 184.471 92.2065 184.155 92.7948C183.838 93.3807 183.679 94.0574 183.679 94.819C183.679 95.5803 183.838 96.2573 184.155 96.8433C184.471 97.4315 184.917 97.8873 185.491 98.2095C186.066 98.5336 186.722 98.6945 187.458 98.6945C188.711 98.6945 189.777 98.1639 190.655 97.1055L193.097 99.3157C192.438 100.141 191.612 100.775 190.617 101.214C189.622 101.652 188.506 101.872 187.265 101.872C185.843 101.872 184.568 101.573 183.438 100.97Z" fill="white"/>
</g>
<path d="M144 94.5C144 99.7466 139.747 104 134.5 104C129.253 104 125 99.7466 125 94.5C125 89.2534 129.253 85 134.5 85C139.747 85 144 89.2534 144 94.5Z" fill="#FF0000"><animate attributeName="opacity" dur="1s" repeatCount="indefinite" values="1;0;1"/></path>
</svg>
