<svg width="333" height="296" viewBox="0 0 333 296" fill="none" xmlns="http://www.w3.org/2000/svg">
<path opacity="0.5" d="M267.61 249.549H64.7656V245.323H263.39V46.6973H267.61V249.549Z" fill="#FFF9F9"/>
<path opacity="0.5" d="M136.077 211.514V225.079H132.239V219.788H127.008V225.079H123.172V211.514H127.008V216.61H132.239V211.514H136.077Z" fill="white"/>
<path opacity="0.5" d="M138.797 211.514H145.21C146.696 211.514 148.013 211.794 149.164 212.347C150.314 212.905 151.205 213.693 151.836 214.712C152.469 215.731 152.787 216.928 152.787 218.296C152.787 219.665 152.47 220.861 151.836 221.881C151.205 222.902 150.313 223.688 149.164 224.245C148.013 224.801 146.696 225.079 145.21 225.079H138.797V211.514ZM145.056 222.017C146.218 222.017 147.152 221.687 147.856 221.028C148.56 220.37 148.912 219.459 148.912 218.296C148.912 217.134 148.56 216.222 147.856 215.564C147.152 214.906 146.218 214.576 145.056 214.576H142.633V222.017H145.056Z" fill="white"/>
<path opacity="0.5" d="M201.31 231.734H167.125C163.294 231.734 160.188 228.628 160.188 224.797V211.209C160.188 207.378 163.294 204.271 167.125 204.271H201.31C205.14 204.271 208.24 207.378 208.24 211.209V224.797C208.24 228.628 205.14 231.734 201.31 231.734Z" fill="white"/>
<path opacity="0.5" d="M182.158 221.946H180.144V224.542H176.405V221.946H169.234V219.448L175.32 210.98H179.292L173.768 218.904H176.52V216.597H180.144V218.904H182.158V221.946Z" fill="#121111"/>
<path opacity="0.5" d="M188.86 219.622L187.43 221.154V224.542H183.625V210.98H187.43V216.618L192.68 210.98H196.9L191.36 216.985L197.19 224.542H192.73L188.86 219.622Z" fill="#121111"/>
<path opacity="0.5" d="M226.331 219.269C226.671 219.801 226.841 220.408 226.841 221.091C226.841 221.943 226.591 222.694 226.101 223.338C225.611 223.986 224.921 224.481 224.031 224.832C223.141 225.179 222.111 225.354 220.951 225.354C219.781 225.354 218.761 225.179 217.871 224.832C216.971 224.482 216.281 223.986 215.791 223.338C215.301 222.694 215.051 221.943 215.051 221.091C215.051 220.408 215.221 219.801 215.561 219.269C215.891 218.741 216.371 218.295 216.991 217.932C216.531 217.61 216.171 217.216 215.921 216.752C215.671 216.285 215.541 215.769 215.541 215.2C215.541 214.413 215.771 213.718 216.221 213.12C216.671 212.517 217.311 212.055 218.131 211.733C218.951 211.411 219.891 211.248 220.951 211.248C222.001 211.248 222.951 211.411 223.761 211.733C224.591 212.055 225.221 212.517 225.671 213.12C226.131 213.718 226.351 214.413 226.351 215.2C226.351 215.769 226.231 216.285 225.971 216.752C225.721 217.216 225.361 217.61 224.901 217.932C225.521 218.295 226.001 218.741 226.331 219.269ZM222.431 222.205C222.801 221.902 222.981 221.493 222.981 220.975C222.981 220.458 222.801 220.049 222.431 219.744C222.061 219.442 221.571 219.29 220.951 219.29C220.331 219.29 219.831 219.442 219.461 219.744C219.101 220.049 218.911 220.457 218.911 220.975C218.911 221.493 219.091 221.902 219.461 222.205C219.831 222.509 220.321 222.661 220.951 222.661C221.571 222.661 222.061 222.508 222.431 222.205ZM219.781 214.321C219.491 214.572 219.341 214.923 219.341 215.375C219.341 215.814 219.481 216.161 219.771 216.413C220.061 216.665 220.461 216.788 220.951 216.788C221.441 216.788 221.831 216.665 222.131 216.413C222.431 216.161 222.571 215.814 222.571 215.375C222.571 214.923 222.431 214.572 222.131 214.321C221.831 214.069 221.441 213.941 220.951 213.941C220.471 213.941 220.081 214.069 219.781 214.321Z" fill="white"/>
<path opacity="0.5" d="M234.019 220.16L232.589 221.691V225.083H228.789V211.518H232.589V217.157L237.839 211.518H242.059L236.519 217.527L242.349 225.083H237.899L234.019 220.16Z" fill="white"/>
</svg>
